<mxfile host="app.diagrams.net" agent="Mozilla/5.0 (Windows NT 10.0; Win64; x64) AppleWebKit/537.36 (KHTML, like Gecko) Chrome/133.0.0.0 Safari/537.36" version="26.1.0">
  <diagram name="Page-1" id="XxgZazWBQIAPx52GOGu3">
    <mxGraphModel dx="1500" dy="813" grid="1" gridSize="10" guides="1" tooltips="1" connect="1" arrows="1" fold="1" page="1" pageScale="1" pageWidth="850" pageHeight="1100" math="0" shadow="0">
      <root>
        <mxCell id="0" />
        <mxCell id="1" parent="0" />
        <mxCell id="KMH83bvubGxiLKyMkYgx-3" value="" style="edgeStyle=orthogonalEdgeStyle;rounded=0;orthogonalLoop=1;jettySize=auto;html=1;" edge="1" parent="1" source="KMH83bvubGxiLKyMkYgx-1" target="KMH83bvubGxiLKyMkYgx-2">
          <mxGeometry relative="1" as="geometry" />
        </mxCell>
        <mxCell id="KMH83bvubGxiLKyMkYgx-1" value="Inicio" style="ellipse;whiteSpace=wrap;html=1;" vertex="1" parent="1">
          <mxGeometry x="365" y="20" width="120" height="80" as="geometry" />
        </mxCell>
        <mxCell id="KMH83bvubGxiLKyMkYgx-9" value="" style="edgeStyle=orthogonalEdgeStyle;rounded=0;orthogonalLoop=1;jettySize=auto;html=1;" edge="1" parent="1" source="KMH83bvubGxiLKyMkYgx-2" target="KMH83bvubGxiLKyMkYgx-6">
          <mxGeometry relative="1" as="geometry" />
        </mxCell>
        <mxCell id="KMH83bvubGxiLKyMkYgx-2" value="Obtener instrucciones en el internet" style="rounded=0;whiteSpace=wrap;html=1;" vertex="1" parent="1">
          <mxGeometry x="365" y="120" width="120" height="60" as="geometry" />
        </mxCell>
        <mxCell id="KMH83bvubGxiLKyMkYgx-12" style="edgeStyle=orthogonalEdgeStyle;rounded=0;orthogonalLoop=1;jettySize=auto;html=1;entryX=0.5;entryY=0;entryDx=0;entryDy=0;" edge="1" parent="1" source="KMH83bvubGxiLKyMkYgx-6" target="KMH83bvubGxiLKyMkYgx-11">
          <mxGeometry relative="1" as="geometry" />
        </mxCell>
        <mxCell id="KMH83bvubGxiLKyMkYgx-6" value="Confirmar en linea si el fertilizant es adecuado" style="rhombus;whiteSpace=wrap;html=1;" vertex="1" parent="1">
          <mxGeometry x="350" y="210" width="150" height="130" as="geometry" />
        </mxCell>
        <mxCell id="KMH83bvubGxiLKyMkYgx-15" value="" style="edgeStyle=orthogonalEdgeStyle;rounded=0;orthogonalLoop=1;jettySize=auto;html=1;" edge="1" parent="1" source="KMH83bvubGxiLKyMkYgx-11" target="KMH83bvubGxiLKyMkYgx-14">
          <mxGeometry relative="1" as="geometry" />
        </mxCell>
        <mxCell id="KMH83bvubGxiLKyMkYgx-11" value="Ubicar el vivero mas cercano" style="rounded=0;whiteSpace=wrap;html=1;" vertex="1" parent="1">
          <mxGeometry x="645" y="360" width="120" height="60" as="geometry" />
        </mxCell>
        <mxCell id="KMH83bvubGxiLKyMkYgx-13" value="NO" style="text;html=1;align=center;verticalAlign=middle;resizable=0;points=[];autosize=1;strokeColor=none;fillColor=none;" vertex="1" parent="1">
          <mxGeometry x="530" y="248" width="40" height="30" as="geometry" />
        </mxCell>
        <mxCell id="KMH83bvubGxiLKyMkYgx-17" value="" style="edgeStyle=orthogonalEdgeStyle;rounded=0;orthogonalLoop=1;jettySize=auto;html=1;" edge="1" parent="1" source="KMH83bvubGxiLKyMkYgx-14" target="KMH83bvubGxiLKyMkYgx-16">
          <mxGeometry relative="1" as="geometry" />
        </mxCell>
        <mxCell id="KMH83bvubGxiLKyMkYgx-14" value="Obtener el contacto" style="rounded=0;whiteSpace=wrap;html=1;" vertex="1" parent="1">
          <mxGeometry x="645" y="440" width="120" height="60" as="geometry" />
        </mxCell>
        <mxCell id="KMH83bvubGxiLKyMkYgx-29" value="" style="edgeStyle=orthogonalEdgeStyle;rounded=0;orthogonalLoop=1;jettySize=auto;html=1;" edge="1" parent="1" source="KMH83bvubGxiLKyMkYgx-16" target="KMH83bvubGxiLKyMkYgx-27">
          <mxGeometry relative="1" as="geometry" />
        </mxCell>
        <mxCell id="KMH83bvubGxiLKyMkYgx-16" value="Tienen el fertilizante adecuado?" style="rhombus;whiteSpace=wrap;html=1;" vertex="1" parent="1">
          <mxGeometry x="640" y="520" width="130" height="130" as="geometry" />
        </mxCell>
        <mxCell id="KMH83bvubGxiLKyMkYgx-19" value="" style="endArrow=classic;html=1;rounded=0;entryX=1;entryY=0.5;entryDx=0;entryDy=0;" edge="1" parent="1" target="KMH83bvubGxiLKyMkYgx-11">
          <mxGeometry width="50" height="50" relative="1" as="geometry">
            <mxPoint x="805" y="390" as="sourcePoint" />
            <mxPoint x="705" y="450" as="targetPoint" />
          </mxGeometry>
        </mxCell>
        <mxCell id="KMH83bvubGxiLKyMkYgx-20" value="" style="endArrow=none;html=1;rounded=0;" edge="1" parent="1">
          <mxGeometry width="50" height="50" relative="1" as="geometry">
            <mxPoint x="800" y="580" as="sourcePoint" />
            <mxPoint x="805" y="390" as="targetPoint" />
          </mxGeometry>
        </mxCell>
        <mxCell id="KMH83bvubGxiLKyMkYgx-21" value="" style="endArrow=none;html=1;rounded=0;exitX=1;exitY=0.5;exitDx=0;exitDy=0;" edge="1" parent="1" source="KMH83bvubGxiLKyMkYgx-16">
          <mxGeometry width="50" height="50" relative="1" as="geometry">
            <mxPoint x="570" y="500" as="sourcePoint" />
            <mxPoint x="800" y="580" as="targetPoint" />
          </mxGeometry>
        </mxCell>
        <mxCell id="KMH83bvubGxiLKyMkYgx-22" value="NO" style="text;html=1;align=center;verticalAlign=middle;resizable=0;points=[];autosize=1;strokeColor=none;fillColor=none;" vertex="1" parent="1">
          <mxGeometry x="770" y="580" width="40" height="30" as="geometry" />
        </mxCell>
        <mxCell id="KMH83bvubGxiLKyMkYgx-44" style="edgeStyle=orthogonalEdgeStyle;rounded=0;orthogonalLoop=1;jettySize=auto;html=1;" edge="1" parent="1" source="KMH83bvubGxiLKyMkYgx-24">
          <mxGeometry relative="1" as="geometry">
            <mxPoint x="260" y="530" as="targetPoint" />
          </mxGeometry>
        </mxCell>
        <mxCell id="KMH83bvubGxiLKyMkYgx-24" value="Hay suficiente tiempo en el dia?" style="rhombus;whiteSpace=wrap;html=1;" vertex="1" parent="1">
          <mxGeometry x="328" y="370" width="195" height="150" as="geometry" />
        </mxCell>
        <mxCell id="KMH83bvubGxiLKyMkYgx-30" value="" style="edgeStyle=orthogonalEdgeStyle;rounded=0;orthogonalLoop=1;jettySize=auto;html=1;" edge="1" parent="1" source="KMH83bvubGxiLKyMkYgx-26" target="KMH83bvubGxiLKyMkYgx-28">
          <mxGeometry relative="1" as="geometry" />
        </mxCell>
        <mxCell id="KMH83bvubGxiLKyMkYgx-26" value="Ir al vivero" style="rounded=0;whiteSpace=wrap;html=1;" vertex="1" parent="1">
          <mxGeometry x="645" y="670" width="120" height="60" as="geometry" />
        </mxCell>
        <mxCell id="KMH83bvubGxiLKyMkYgx-27" value="Comprar el fertilizante" style="rounded=0;whiteSpace=wrap;html=1;" vertex="1" parent="1">
          <mxGeometry x="645" y="760" width="120" height="60" as="geometry" />
        </mxCell>
        <mxCell id="KMH83bvubGxiLKyMkYgx-28" value="Regresar a casa" style="rounded=0;whiteSpace=wrap;html=1;" vertex="1" parent="1">
          <mxGeometry x="645" y="840" width="120" height="60" as="geometry" />
        </mxCell>
        <mxCell id="KMH83bvubGxiLKyMkYgx-32" value="" style="endArrow=classic;html=1;rounded=0;entryX=0.5;entryY=0;entryDx=0;entryDy=0;" edge="1" parent="1" target="KMH83bvubGxiLKyMkYgx-24">
          <mxGeometry width="50" height="50" relative="1" as="geometry">
            <mxPoint x="430" y="350" as="sourcePoint" />
            <mxPoint x="620" y="420" as="targetPoint" />
          </mxGeometry>
        </mxCell>
        <mxCell id="KMH83bvubGxiLKyMkYgx-33" value="" style="endArrow=none;html=1;rounded=0;" edge="1" parent="1">
          <mxGeometry width="50" height="50" relative="1" as="geometry">
            <mxPoint x="280" y="350" as="sourcePoint" />
            <mxPoint x="430" y="350" as="targetPoint" />
          </mxGeometry>
        </mxCell>
        <mxCell id="KMH83bvubGxiLKyMkYgx-34" value="" style="endArrow=none;html=1;rounded=0;" edge="1" parent="1">
          <mxGeometry width="50" height="50" relative="1" as="geometry">
            <mxPoint x="280" y="280" as="sourcePoint" />
            <mxPoint x="280" y="350" as="targetPoint" />
          </mxGeometry>
        </mxCell>
        <mxCell id="KMH83bvubGxiLKyMkYgx-36" value="" style="endArrow=none;html=1;rounded=0;exitX=0;exitY=0.5;exitDx=0;exitDy=0;" edge="1" parent="1" source="KMH83bvubGxiLKyMkYgx-6">
          <mxGeometry width="50" height="50" relative="1" as="geometry">
            <mxPoint x="640" y="470" as="sourcePoint" />
            <mxPoint x="280" y="280" as="targetPoint" />
          </mxGeometry>
        </mxCell>
        <mxCell id="KMH83bvubGxiLKyMkYgx-37" value="" style="endArrow=classic;html=1;rounded=0;entryX=1;entryY=0;entryDx=0;entryDy=0;" edge="1" parent="1" target="KMH83bvubGxiLKyMkYgx-24">
          <mxGeometry width="50" height="50" relative="1" as="geometry">
            <mxPoint x="560" y="400" as="sourcePoint" />
            <mxPoint x="690" y="670" as="targetPoint" />
          </mxGeometry>
        </mxCell>
        <mxCell id="KMH83bvubGxiLKyMkYgx-38" value="" style="endArrow=none;html=1;rounded=0;" edge="1" parent="1">
          <mxGeometry width="50" height="50" relative="1" as="geometry">
            <mxPoint x="620" y="400" as="sourcePoint" />
            <mxPoint x="560" y="400" as="targetPoint" />
          </mxGeometry>
        </mxCell>
        <mxCell id="KMH83bvubGxiLKyMkYgx-39" value="" style="endArrow=none;html=1;rounded=0;" edge="1" parent="1">
          <mxGeometry width="50" height="50" relative="1" as="geometry">
            <mxPoint x="620" y="870" as="sourcePoint" />
            <mxPoint x="620" y="400" as="targetPoint" />
          </mxGeometry>
        </mxCell>
        <mxCell id="KMH83bvubGxiLKyMkYgx-40" value="" style="endArrow=none;html=1;rounded=0;exitX=0;exitY=0.5;exitDx=0;exitDy=0;" edge="1" parent="1" source="KMH83bvubGxiLKyMkYgx-28">
          <mxGeometry width="50" height="50" relative="1" as="geometry">
            <mxPoint x="640" y="800" as="sourcePoint" />
            <mxPoint x="620" y="870" as="targetPoint" />
          </mxGeometry>
        </mxCell>
        <mxCell id="KMH83bvubGxiLKyMkYgx-41" value="SI" style="text;html=1;align=center;verticalAlign=middle;resizable=0;points=[];autosize=1;strokeColor=none;fillColor=none;" vertex="1" parent="1">
          <mxGeometry x="295" y="248" width="30" height="30" as="geometry" />
        </mxCell>
        <mxCell id="KMH83bvubGxiLKyMkYgx-52" style="edgeStyle=orthogonalEdgeStyle;rounded=0;orthogonalLoop=1;jettySize=auto;html=1;entryX=0.5;entryY=0;entryDx=0;entryDy=0;" edge="1" parent="1" source="KMH83bvubGxiLKyMkYgx-42" target="KMH83bvubGxiLKyMkYgx-51">
          <mxGeometry relative="1" as="geometry" />
        </mxCell>
        <mxCell id="KMH83bvubGxiLKyMkYgx-42" value="Transplantar" style="rounded=0;whiteSpace=wrap;html=1;" vertex="1" parent="1">
          <mxGeometry x="200" y="530" width="120" height="60" as="geometry" />
        </mxCell>
        <mxCell id="KMH83bvubGxiLKyMkYgx-43" value="Intentar el dia siguiente" style="rounded=0;whiteSpace=wrap;html=1;" vertex="1" parent="1">
          <mxGeometry x="480" y="530" width="120" height="60" as="geometry" />
        </mxCell>
        <mxCell id="KMH83bvubGxiLKyMkYgx-47" value="" style="endArrow=classic;html=1;rounded=0;entryX=0.667;entryY=0;entryDx=0;entryDy=0;entryPerimeter=0;" edge="1" parent="1" target="KMH83bvubGxiLKyMkYgx-43">
          <mxGeometry width="50" height="50" relative="1" as="geometry">
            <mxPoint x="560" y="450" as="sourcePoint" />
            <mxPoint x="580" y="500" as="targetPoint" />
          </mxGeometry>
        </mxCell>
        <mxCell id="KMH83bvubGxiLKyMkYgx-48" value="" style="endArrow=none;html=1;rounded=0;exitX=1;exitY=0.5;exitDx=0;exitDy=0;" edge="1" parent="1" source="KMH83bvubGxiLKyMkYgx-24">
          <mxGeometry width="50" height="50" relative="1" as="geometry">
            <mxPoint x="530" y="550" as="sourcePoint" />
            <mxPoint x="560" y="450" as="targetPoint" />
          </mxGeometry>
        </mxCell>
        <mxCell id="KMH83bvubGxiLKyMkYgx-49" value="NO" style="text;html=1;align=center;verticalAlign=middle;resizable=0;points=[];autosize=1;strokeColor=none;fillColor=none;" vertex="1" parent="1">
          <mxGeometry x="520" y="418" width="40" height="30" as="geometry" />
        </mxCell>
        <mxCell id="KMH83bvubGxiLKyMkYgx-50" value="SI" style="text;html=1;align=center;verticalAlign=middle;resizable=0;points=[];autosize=1;strokeColor=none;fillColor=none;" vertex="1" parent="1">
          <mxGeometry x="285" y="418" width="30" height="30" as="geometry" />
        </mxCell>
        <mxCell id="KMH83bvubGxiLKyMkYgx-51" value="FIN" style="ellipse;whiteSpace=wrap;html=1;" vertex="1" parent="1">
          <mxGeometry x="366" y="690" width="120" height="80" as="geometry" />
        </mxCell>
      </root>
    </mxGraphModel>
  </diagram>
</mxfile>
